<?xml version="1.0" encoding="UTF-8"?>
<svg version="1.1" xmlns="http://www.w3.org/2000/svg" width="1024" height="1024">

  <!-- LOGO -->
  <g transform="translate(0, -160)">
<path d="M0 0 C42.24 0 84.48 0 128 0 C128 10.56 128 21.12 128 32 C149.12 32 170.24 32 192 32 C192 42.56 192 53.12 192 64 C213.12 64 234.24 64 256 64 C256 74.56 256 85.12 256 96 C277.12 96 298.24 96 320 96 C320 106.56 320 117.12 320 128 C341.12 128 362.24 128 384 128 C384 138.56 384 149.12 384 160 C394.56 160 405.12 160 416 160 C416 297.28 416 434.56 416 576 C405.44 576 394.88 576 384 576 C384 586.56 384 597.12 384 608 C362.88 608 341.76 608 320 608 C320 618.56 320 629.12 320 640 C298.88 640 277.76 640 256 640 C256 650.56 256 661.12 256 672 C234.88 672 213.76 672 192 672 C192 682.56 192 693.12 192 704 C170.88 704 149.76 704 128 704 C128 714.56 128 725.12 128 736 C85.76 736 43.52 736 0 736 C0 725.44 0 714.88 0 704 C-21.12 704 -42.24 704 -64 704 C-64 693.44 -64 682.88 -64 672 C-85.12 672 -106.24 672 -128 672 C-128 661.44 -128 650.88 -128 640 C-149.12 640 -170.24 640 -192 640 C-192 629.44 -192 618.88 -192 608 C-213.12 608 -234.24 608 -256 608 C-256 597.44 -256 586.88 -256 576 C-266.56 576 -277.12 576 -288 576 C-288 438.72 -288 301.44 -288 160 C-277.44 160 -266.88 160 -256 160 C-256 149.44 -256 138.88 -256 128 C-234.88 128 -213.76 128 -192 128 C-192 117.44 -192 106.88 -192 96 C-170.88 96 -149.76 96 -128 96 C-128 85.44 -128 74.88 -128 64 C-106.88 64 -85.76 64 -64 64 C-64 53.44 -64 42.88 -64 32 C-42.88 32 -21.76 32 0 32 C0 21.44 0 10.88 0 0 Z " fill="#B8B8B8" transform="translate(448,160)"/>
<path d="M0 0 C21.12 0 42.24 0 64 0 C64 21.12 64 42.24 64 64 C85.12 64 106.24 64 128 64 C128 74.56 128 85.12 128 96 C149.12 96 170.24 96 192 96 C192 106.56 192 117.12 192 128 C213.12 128 234.24 128 256 128 C256 138.56 256 149.12 256 160 C277.12 160 298.24 160 320 160 C320 297.28 320 434.56 320 576 C341.12 576 362.24 576 384 576 C384 586.56 384 597.12 384 608 C341.76 608 299.52 608 256 608 C256 597.44 256 586.88 256 576 C234.88 576 213.76 576 192 576 C192 565.44 192 554.88 192 544 C170.88 544 149.76 544 128 544 C128 533.44 128 522.88 128 512 C106.88 512 85.76 512 64 512 C64 501.44 64 490.88 64 480 C42.88 480 21.76 480 0 480 C0 469.44 0 458.88 0 448 C-10.56 448 -21.12 448 -32 448 C-32 310.72 -32 173.44 -32 32 C-21.44 32 -10.88 32 0 32 C0 21.44 0 10.88 0 0 Z " fill="#383838" transform="translate(192,288)"/>
<path d="M0 0 C42.24 0 84.48 0 128 0 C128 10.56 128 21.12 128 32 C149.12 32 170.24 32 192 32 C192 42.56 192 53.12 192 64 C213.12 64 234.24 64 256 64 C256 74.56 256 85.12 256 96 C277.12 96 298.24 96 320 96 C320 127.68 320 159.36 320 192 C298.88 192 277.76 192 256 192 C256 202.56 256 213.12 256 224 C234.88 224 213.76 224 192 224 C192 234.56 192 245.12 192 256 C170.88 256 149.76 256 128 256 C128 266.56 128 277.12 128 288 C85.76 288 43.52 288 0 288 C0 277.44 0 266.88 0 256 C-21.12 256 -42.24 256 -64 256 C-64 245.44 -64 234.88 -64 224 C-85.12 224 -106.24 224 -128 224 C-128 213.44 -128 202.88 -128 192 C-149.12 192 -170.24 192 -192 192 C-192 160.32 -192 128.64 -192 96 C-170.88 96 -149.76 96 -128 96 C-128 85.44 -128 74.88 -128 64 C-106.88 64 -85.76 64 -64 64 C-64 53.44 -64 42.88 -64 32 C-42.88 32 -21.76 32 0 32 C0 21.44 0 10.88 0 0 Z " fill="#D8D8D8" transform="translate(448,160)"/>
<path d="M0 0 C10.56 0 21.12 0 32 0 C32 137.28 32 274.56 32 416 C21.44 416 10.88 416 0 416 C0 278.72 0 141.44 0 0 Z " fill="#080808" transform="translate(832,320)"/>
<path d="M0 0 C10.56 0 21.12 0 32 0 C32 137.28 32 274.56 32 416 C21.44 416 10.88 416 0 416 C0 278.72 0 141.44 0 0 Z " fill="#080808" transform="translate(160,320)"/>
<path d="M0 0 C42.24 0 84.48 0 128 0 C128 10.56 128 21.12 128 32 C85.76 32 43.52 32 0 32 C0 21.44 0 10.88 0 0 Z " fill="#080808" transform="translate(448,864)"/>
<path d="M0 0 C42.24 0 84.48 0 128 0 C128 10.56 128 21.12 128 32 C85.76 32 43.52 32 0 32 C0 21.44 0 10.88 0 0 Z " fill="#080808" transform="translate(448,160)"/>
<path d="M0 0 C21.12 0 42.24 0 64 0 C64 10.56 64 21.12 64 32 C42.88 32 21.76 32 0 32 C0 21.44 0 10.88 0 0 Z " fill="#080808" transform="translate(576,832)"/>
<path d="M0 0 C21.12 0 42.24 0 64 0 C64 10.56 64 21.12 64 32 C42.88 32 21.76 32 0 32 C0 21.44 0 10.88 0 0 Z " fill="#080808" transform="translate(384,832)"/>
<path d="M0 0 C21.12 0 42.24 0 64 0 C64 10.56 64 21.12 64 32 C42.88 32 21.76 32 0 32 C0 21.44 0 10.88 0 0 Z " fill="#080808" transform="translate(640,800)"/>
<path d="M0 0 C21.12 0 42.24 0 64 0 C64 10.56 64 21.12 64 32 C42.88 32 21.76 32 0 32 C0 21.44 0 10.88 0 0 Z " fill="#080808" transform="translate(320,800)"/>
<path d="M0 0 C21.12 0 42.24 0 64 0 C64 10.56 64 21.12 64 32 C42.88 32 21.76 32 0 32 C0 21.44 0 10.88 0 0 Z " fill="#080808" transform="translate(704,768)"/>
<path d="M0 0 C21.12 0 42.24 0 64 0 C64 10.56 64 21.12 64 32 C42.88 32 21.76 32 0 32 C0 21.44 0 10.88 0 0 Z " fill="#080808" transform="translate(256,768)"/>
<path d="M0 0 C21.12 0 42.24 0 64 0 C64 10.56 64 21.12 64 32 C42.88 32 21.76 32 0 32 C0 21.44 0 10.88 0 0 Z " fill="#080808" transform="translate(768,736)"/>
<path d="M0 0 C21.12 0 42.24 0 64 0 C64 10.56 64 21.12 64 32 C42.88 32 21.76 32 0 32 C0 21.44 0 10.88 0 0 Z " fill="#080808" transform="translate(192,736)"/>
<path d="M0 0 C21.12 0 42.24 0 64 0 C64 10.56 64 21.12 64 32 C42.88 32 21.76 32 0 32 C0 21.44 0 10.88 0 0 Z " fill="#080808" transform="translate(768,288)"/>
<path d="M0 0 C21.12 0 42.24 0 64 0 C64 10.56 64 21.12 64 32 C42.88 32 21.76 32 0 32 C0 21.44 0 10.88 0 0 Z " fill="#080808" transform="translate(192,288)"/>
<path d="M0 0 C21.12 0 42.24 0 64 0 C64 10.56 64 21.12 64 32 C42.88 32 21.76 32 0 32 C0 21.44 0 10.88 0 0 Z " fill="#080808" transform="translate(704,256)"/>
<path d="M0 0 C21.12 0 42.24 0 64 0 C64 10.56 64 21.12 64 32 C42.88 32 21.76 32 0 32 C0 21.44 0 10.88 0 0 Z " fill="#080808" transform="translate(256,256)"/>
<path d="M0 0 C21.12 0 42.24 0 64 0 C64 10.56 64 21.12 64 32 C42.88 32 21.76 32 0 32 C0 21.44 0 10.88 0 0 Z " fill="#080808" transform="translate(640,224)"/>
<path d="M0 0 C21.12 0 42.24 0 64 0 C64 10.56 64 21.12 64 32 C42.88 32 21.76 32 0 32 C0 21.44 0 10.88 0 0 Z " fill="#080808" transform="translate(320,224)"/>
<path d="M0 0 C21.12 0 42.24 0 64 0 C64 10.56 64 21.12 64 32 C42.88 32 21.76 32 0 32 C0 21.44 0 10.88 0 0 Z " fill="#080808" transform="translate(576,192)"/>
<path d="M0 0 C21.12 0 42.24 0 64 0 C64 10.56 64 21.12 64 32 C42.88 32 21.76 32 0 32 C0 21.44 0 10.88 0 0 Z " fill="#080808" transform="translate(384,192)"/>
    </g>

  <!-- TEXT -->
    <g transform="translate(192, 768)" fill="#000000">
    <g transform="scale(4)">
      <g transform="translate(-24,0)">
      <path d="M 0 24.39 L 2.439 24.39 L 2.439 19.512 L 4.878 19.512 L 4.878 17.073 L 9.756 17.073 L 9.756 14.634 L 26.829 14.634 L 26.829 0 L 39.024 0 L 39.024 60.976 L 26.829 60.976 L 26.829 58.537 L 24.39 58.537 L 24.39 60.976 L 9.756 60.976 L 9.756 58.537 L 4.878 58.537 L 4.878 56.098 L 2.439 56.098 L 2.439 51.22 L 0 51.22 L 0 24.39 Z M 12.195 48.78 L 14.634 48.78 L 14.634 51.22 L 24.39 51.22 L 24.39 48.78 L 26.829 48.78 L 26.829 24.39 L 14.634 24.39 L 14.634 26.829 L 12.195 26.829 L 12.195 48.78 Z" id="0" vector-effect="non-scaling-stroke"/></g>
      <g transform="translate(-8,0)">
      <path d="M 60.976 48.78 L 63.415 48.78 L 63.415 51.22 L 70.732 51.22 L 70.732 60.976 L 58.537 60.976 L 58.537 58.537 L 53.659 58.537 L 53.659 56.098 L 51.22 56.098 L 51.22 51.22 L 48.78 51.22 L 48.78 26.829 L 43.902 26.829 L 43.902 17.073 L 48.78 17.073 L 48.78 12.195 L 51.22 12.195 L 51.22 9.756 L 53.659 9.756 L 53.659 7.317 L 56.098 7.317 L 56.098 4.878 L 58.537 4.878 L 58.537 2.439 L 60.976 2.439 L 60.976 17.073 L 70.732 17.073 L 70.732 26.829 L 60.976 26.829 L 60.976 48.78 Z" id="1" vector-effect="non-scaling-stroke"/></g>
      <g transform="translate(8,0)">
      <path d="M 109.756 58.537 L 104.878 58.537 L 104.878 60.976 L 85.366 60.976 L 85.366 58.537 L 80.488 58.537 L 80.488 56.098 L 78.049 56.098 L 78.049 51.22 L 75.61 51.22 L 75.61 24.39 L 78.049 24.39 L 78.049 19.512 L 80.488 19.512 L 80.488 17.073 L 85.366 17.073 L 85.366 14.634 L 104.878 14.634 L 104.878 17.073 L 109.756 17.073 L 109.756 19.512 L 112.195 19.512 L 112.195 24.39 L 114.634 24.39 L 114.634 51.22 L 112.195 51.22 L 112.195 56.098 L 109.756 56.098 L 109.756 58.537 Z M 87.805 48.78 L 90.244 48.78 L 90.244 51.22 L 100 51.22 L 100 48.78 L 102.439 48.78 L 102.439 26.829 L 100 26.829 L 100 24.39 L 90.244 24.39 L 90.244 26.829 L 87.805 26.829 L 87.805 48.78 Z" id="2" vector-effect="non-scaling-stroke"/></g>
      <g transform="translate(24,0)">
      <path d="M 119.512 46.341 L 131.707 46.341 L 131.707 48.78 L 134.146 48.78 L 134.146 51.22 L 143.902 51.22 L 143.902 48.78 L 146.341 48.78 L 146.341 43.902 L 143.902 43.902 L 143.902 41.463 L 129.268 41.463 L 129.268 39.024 L 124.39 39.024 L 124.39 36.585 L 121.951 36.585 L 121.951 31.707 L 119.512 31.707 L 119.512 24.39 L 121.951 24.39 L 121.951 19.512 L 124.39 19.512 L 124.39 17.073 L 129.268 17.073 L 129.268 14.634 L 148.78 14.634 L 148.78 17.073 L 153.659 17.073 L 153.659 19.512 L 156.098 19.512 L 156.098 26.829 L 143.902 26.829 L 143.902 24.39 L 134.146 24.39 L 134.146 26.829 L 131.707 26.829 L 131.707 29.268 L 134.146 29.268 L 134.146 31.707 L 148.78 31.707 L 148.78 34.146 L 153.659 34.146 L 153.659 36.585 L 156.098 36.585 L 156.098 41.463 L 158.537 41.463 L 158.537 51.22 L 156.098 51.22 L 156.098 56.098 L 153.659 56.098 L 153.659 58.537 L 148.78 58.537 L 148.78 60.976 L 129.268 60.976 L 129.268 58.537 L 124.39 58.537 L 124.39 56.098 L 121.951 56.098 L 121.951 51.22 L 119.512 51.22 L 119.512 46.341 Z" id="3" vector-effect="non-scaling-stroke"/>
        </g>
    </g>
  </g>
</svg>